<svg xmlns="http://www.w3.org/2000/svg" 
width="112.02" 
height="99.655" 
viewBox="0 0 112.02 99.655">
<defs>
<style>.a{fill:#1d1e1c;}.b{fill:#fff;}.c{fill:red;fill:var(--accent,red);}
</style>
</defs>
<g transform="translate(-1608.841 -592.447)">
<path class="a" d="M1631.117,593.376c-1.991-.244-3.444.4-3.349,2.569.018.445.348,2.158.289,2.6a18.5,18.5,0,0,0,4.028.056,7.316,7.316,0,0,1,.7-1.34c1.41-2.155.508-3.621-1.67-3.886">
</path>
<path class="a" d="M1612.5,598.865c.6-.256,1.251-1.016,1.87-1.231-.063-1.158.646-1.835.505-2.958-.353-2.882-2.609-2.159-3.765-2.122-1.623.039-2.418,1.749-2.246,3.67.076.834,1.095,2.081,1.167,2.906a3.394,3.394,0,0,0,2.469-.265">
</path>
<path class="a" d="M1613.7,598.214a3.76,3.76,0,0,0,.666-.379c0-.035,0-.065,0-.1a8.083,8.083,0,0,1-.664.477">
</path>
<path class="b" d="M1622.607,646.24c.315.263.2.928.784.824.311-.057.379-.514.311-.654-.22-.463-.693-.118-1.095-.17">
</path>
<path class="b" d="M1627.469,640.155a9.222,9.222,0,0,0,2.466,1.969c.1.039.2.078.392.145a2.737,2.737,0,0,0-.889-1.447,6.546,6.546,0,0,1-1.819-3.061,3.221,3.221,0,0,0-.468-1.13c-.343-.482.005-.892.243-1.294a.47.47,0,0,1,.6-.214.95.95,0,0,1,.75.878,6.579,6.579,0,0,0,2.074,3.988,8.746,8.746,0,0,1,1.341,1.966,1.743,1.743,0,0,1-.221,2.049c-.521.6-1.272.307-1.871.015a7.487,7.487,0,0,1-2.015-1.819c-.971-1.048-1.922-2.13-3.5-2.27a.514.514,0,0,1-.473-.556c.03-.351.307-.464.643-.469a4.188,4.188,0,0,1,2.738,1.25m-1.3,6.774a5.822,5.822,0,0,0-1.354.923c-.891.767-2.028.421-3.058.514a7,7,0,0,1-4.548-1.112c-1.55-1.048-1.754-2.018-.658-3.255a1.326,1.326,0,0,1,1.831-.28c1.422.928,3.06.662,4.6.942.845.157,1.647-.322,2.519-.272.658.039,1.078.19,1.232.864s.14,1.35-.56,1.676m7.422,10.352a14.528,14.528,0,0,1,.638,1.991,15.825,15.825,0,0,0,2.474,6.385,11.264,11.264,0,0,1,.95,2.189,1.378,1.378,0,0,1,.008,1.037c-.075.175-.1.418-.388.422a.5.5,0,0,1-.5-.295,2.96,2.96,0,0,1-.468-.939,7.914,7.914,0,0,0-1.367-3.117,8.281,8.281,0,0,1-1.324-5.035,2.2,2.2,0,0,0-.141-.867,2.428,2.428,0,0,1,.116-1.771M1636.9,684.4a.433.433,0,0,1-.577.276c-.336-.12-.208-.353-.133-.582.226-.666.435-1.338.659-2.005a.42.42,0,0,1,.536-.327c.206.044.27.194.284.432-.244.715-.49,1.469-.769,2.206m3.433-.465c.337.239.125.526-.046.769-.349.49-.667,1.042-1.532.924.321-.562.578-.983.8-1.42.183-.354.44-.51.776-.273m6.9,1.43a.427.427,0,0,1,.238.518c-.2.49-.436.962-.672,1.437-.078.152-.211.321-.416.249-.22-.084-.114-.295-.124-.485.164-.48.341-.979.515-1.478.078-.227.222-.379.459-.241m-18.378-87.707c-1.237,3.838-1.06,8.34-1.526,12.325a49.536,49.536,0,0,1-.955,5.48c-.255,1.109-.094,2.241-.38,3.331-.7,2.711-1.375,5.426-2.08,8.133-.525,2.006-1.974,3.051-3.73,2.733a4.854,4.854,0,0,1-3.37-3.9c-.06-2.464-.822-4.827-1.024-7.267-.218-2.656-.989-5.207-1.427-7.82-.258-1.545-.452-3.1-.679-4.652-.353-2.447-.006-4.9-.164-7.342-.016-.232.4-3.452.354-3.3.717-2.525-4.041-2.733-3.911-.142.01.145,1.049,3.929,1.065,4.074.39,3.66.761,7.325,1.185,10.983a33.168,33.168,0,0,0,1.411,5.481,31.121,31.121,0,0,1,1.123,5.44,59.363,59.363,0,0,1,.226,9.787,28.471,28.471,0,0,0,.433,3.659,3.767,3.767,0,0,1-.19,2.324,2.351,2.351,0,0,1-2.126,1.33,5.337,5.337,0,0,0-1.662.224c-.507.169-.375.381-.1.588a5.615,5.615,0,0,0,.928.5,3.323,3.323,0,0,1,1.806,4.443,34.481,34.481,0,0,0-1.522,5.064,8.238,8.238,0,0,0,.938,5.217c.855,1.694,1.428,3.484,2.108,5.241a14.594,14.594,0,0,1,1.146,3.554c.333,2.79,1.419,5.413,1.727,8.217.228,2.072.744,4.112.878,6.206a4.114,4.114,0,0,1-.1,1.14c-.258,1.257.167,1.883,1.424,1.966a69.417,69.417,0,0,1,8.805,1.469c1.187.231,2.337.591,3.545.749.7.092.809-.158.752-.766a30.025,30.025,0,0,0-1.563-6.157c-.9-2.838-2.068-5.589-3.13-8.373a25.333,25.333,0,0,0-3.593-6.353,31.313,31.313,0,0,1-1.907-2.965,13.425,13.425,0,0,0-2.166-2.664.692.692,0,0,1-.136-.948c.242-.3.5.035.75.171,2.08,1.115,3.169,3.191,4.755,4.779,2.308,2.314,3,5.362,4.167,8.208.65,1.585,1.249,3.193,1.869,4.792.943,2.428,1.417,5,2.239,7.463.058.167.113.334.2.6a15.029,15.029,0,0,0,1.534-2.156c.142-.184.287-.543.618-.318.367.247-.029.46-.118.658-.558,1.191-1.144,2.366-1.726,3.545-.195.394.008.751.1,1.114.174.684.354,1.366.575,2.035.18.534.471.561.784.074a11.172,11.172,0,0,0,.974-2.467c.167-.472.351-.941.533-1.41.092-.232.21-.454.514-.3a.4.4,0,0,1,.177.6c-.636,1.216-.437,2.852-1.868,3.683-.2.112-.328.433.068.707.882.6,1.356.582,2.049-.23a10.275,10.275,0,0,0,1.677-2.7c.089-.22.107-.683.5-.548a.653.653,0,0,1,.343.827,6.391,6.391,0,0,1-.976,2.249,2.369,2.369,0,0,0-.325.421c-.139.312-.813.588-.427.876.512.383.723-.31.93-.647a16.654,16.654,0,0,1,1.415-2.134c.237-.277.493-.471.835-.257.386.243.2.589.021.854-.368.531-.8,1.022-1.157,1.566-.165.249-.652.472-.284.87a1.185,1.185,0,0,0,1.52-.164c.214-.318.388-.665.574-1a21.958,21.958,0,0,0,2.166-5.028c.056-.206.047-.558.381-.493.312.06.377.363.29.644-.656,2.164-1.214,4.375-3.046,6.267a18.487,18.487,0,0,1,3.162.309c4.085.424,8.166.9,12.271,1.164,1.963.124,3.9.666,5.864.815,3.49.27,6.957.837,10.49,0a32.654,32.654,0,0,1,7.013-.871,14.071,14.071,0,0,0,2.629-.337,9.792,9.792,0,0,1,3.962-.006c2.521.5,5.065.269,7.6.4a64.465,64.465,0,0,0,9.455-.459,20.1,20.1,0,0,0,5.911-1.036c1.9-.788,3.9-1.3,5.776-2.149a1.361,1.361,0,0,0,.728-.659c-1.27.215-1.828-.728-2.6-1.365a13.607,13.607,0,0,0-3.867-2.253c-1.011-.382-1.641-1.33-2.679-1.682-2.68-.912-5.207-2.283-8.008-2.852-1.32-.269-2.666-.411-4.061-.621.525,1.568,1.475,2.856,2.047,4.319.108.278.324.526.219.823-.084.249.336.621-.161.748-.467.113-.67-.266-.758-.583a38.1,38.1,0,0,0-1.77-4.244,3.314,3.314,0,0,0-1.144-1.43.61.61,0,0,0-.748-.041c-.169.146.029.377.092.565.563,1.705,1.13,3.417,1.7,5.123a.8.8,0,0,1,.061.258c-.026.417.24,1.089-.187,1.188-.547.13-.817-.495-.881-1a16.989,16.989,0,0,0-1.024-3.647,8.921,8.921,0,0,0-1.375-3.105,4.082,4.082,0,0,0-2.243-1.036c.336.571.579,1,.84,1.42a7.916,7.916,0,0,1,1.262,3.278c.185,1.394,1.024,2.571,1.485,3.879.16.446.338.884.47,1.338.087.306.186.693-.2.861-.418.179-.637-.167-.827-.474a1.106,1.106,0,0,1-.128-.234c-.695-2.024-1.61-3.962-2.291-6.005-1.08-3.246-2.933-5.935-6.616-6.838-1.958-.481-3.827-1.316-5.781-1.84a24,24,0,0,1-4.568-2.022,14.02,14.02,0,0,0-5.806-1.378,18.439,18.439,0,0,1-9.194-3q-1.258-.778-2.577-1.467a3.5,3.5,0,0,1-1.248-.945c-.914-1.2-2.314-1.9-3.237-3.09-.8-1.034-1.933-1.748-2.495-3.022a3.755,3.755,0,0,0-2.39-1.719c-1.288-.448-2.4-1.238-3.679-1.7a15.045,15.045,0,0,1-1.779-.517c1.088,2.574,1.362,5.279,1.885,7.925a2.138,2.138,0,0,1,.084.867.874.874,0,0,1-.83.679c-.473.012-.665-.377-.7-.773-.073-.82-.1-1.642-.219-2.465-.216-1.5-.718-2.916-1.053-4.38a6.507,6.507,0,0,0-1.283-2.2c-.743-1.083-1.092-2.417-2.187-3.273-.334-.264-.535-.672-1.023-.763a.928.928,0,0,1-.56-.412,40.666,40.666,0,0,0-2.613-3.437,20.54,20.54,0,0,1-2.673-5.738c-.305-.89-.415-1.821-.75-2.709a20.317,20.317,0,0,0-2.66-4.459,14.24,14.24,0,0,0-1.188-1.738.575.575,0,0,1-.14-.581c.9-2.768.511-5.705,1.084-8.493.875-4.23.814-8.565,1.716-12.792.531-2.483,2.172-8.314,2.469-9.227,0,0,.346-2.321-1.062-2.453-1.582-.15-2.547.681-2.059,2.9"></path><path class="b" d="M1617.841,644.89c-.421-.088-.849.27-.757.63a1.511,1.511,0,0,0,1.348,1.072c.676.1.319-.447.407-.64.2-.919-.5-.952-1-1.062"></path><path class="b" d="M1620.054,645.731a.288.288,0,0,0-.25.386c.121.293-.029.746.486.824a4.36,4.36,0,0,0,1.442.13,5,5,0,0,0-.486-.972,1.369,1.369,0,0,0-1.192-.368"></path><path class="a" d="M1686.426,665l.043-.007a.147.147,0,0,1,0,.019,5.332,5.332,0,0,0,2.589-.26,2,2,0,0,0,1.085-2.048c0-.232,0-.493-.341-.518a.552.552,0,0,0-.568.314c-.771,1.22-1.442,1.423-2.949.866a9.378,9.378,0,0,0,1.478-.346c.616-.251.6-.55.119-.838-.526-.311-.678-.657-.412-1.2a.971.971,0,0,0,.031-.354c.015-.275.008-.52-.338-.624s-.474.1-.6.349a4.166,4.166,0,0,1-1.86,1.706.963.963,0,0,1-.86.016,2.84,2.84,0,0,0,1.44-2.176c.016-.176.055-.348.076-.525a.485.485,0,0,0-.355-.547c-.344-.108-.361.207-.453.41-.26.613-.415,1.277-1.1,1.633a.8.8,0,0,1-.879,0,16.267,16.267,0,0,0-9.316-2.255,1.263,1.263,0,0,1-1.329-.745,13.517,13.517,0,0,0-2.009-2.72,12.78,12.78,0,0,1-1.432-1.676,18.946,18.946,0,0,0-4.039-3.614c-.808-.637-1.654-1.22-2.492-1.816a2.96,2.96,0,0,0-1.541-.559.468.468,0,0,0,.29.606c3.965,2.233,6.648,5.787,9.459,9.206.177.212.468.485.293.771-.161.262-.493.031-.746.015-2.184-.125-4.131-1.138-6.206-1.68-1.624-.422-3.117-1.186-4.756-1.6a8.576,8.576,0,0,1-3.922-2.774c-.12-.132-.219-.278-.34-.406s-.244-.309-.439-.217c-.256.118-.153.363-.084.544a5.205,5.205,0,0,0,1.858,2.087,17.566,17.566,0,0,0,6.251,3.336c2.888.755,5.643,1.912,8.623,2.427,1.93.332,3.87.255,5.777.6a19.263,19.263,0,0,1,4.772,1.488c.905.425,1.843,1.146,1.906,2.051a8.065,8.065,0,0,1-.039,3.3,4.71,4.71,0,0,0-.17.779.64.64,0,0,1-.978.549c-1.5-.745-3.268-.8-4.679-1.747-2.74-1.841-5.91-2.109-9.04-2.434a17.484,17.484,0,0,1-6.547-2.251c-.874-.475-1.723-1.013-2.6-1.484-3.335-1.791-5.665-4.642-7.9-7.564a7.115,7.115,0,0,0-3.02-2.052c-1.979-.891-3.993-1.707-6-2.52-.47-.189-.658-.668-1.087-.883-.234-.12-.108-.35-.027-.549.741-1.9,1.157-3.894,1.769-5.829a3.441,3.441,0,0,1,.213-.485c.437-.822.621-.849,1.239-.179.295.314.7.546.795,1.112-.453-.1-.863-.221-1.279-.273-.24-.032-.595-.1-.65.264-.043.294.17.476.469.551a6.4,6.4,0,0,1,2.088.894c1.8,1.255,3.7,2.378,4.719,4.466.144.3.4.815.841.567s.207-.675,0-1.072c-.244-.461-.745-.755-.865-1.342.73-.063,1.076.807,1.79.637.261-.066.654.124.7-.33a.657.657,0,0,0-.492-.747,14,14,0,0,1-5.763-3.747c-.642-.6-1.275-1.221-1.95-1.785-.3-.245-.347-.378-.111-.7.773-1.042.935-1.061,1.819-.124a19.623,19.623,0,0,0,5.027,4.322,2.727,2.727,0,0,0,.654.248c.269.058.652.219.736-.2.074-.346-.028-.768-.478-.823-1.938-.229-3.045-1.64-4.251-2.922-.5-.534-1.005-1.067-1.489-1.62a.758.758,0,0,1-.143-.951,27.838,27.838,0,0,1,4.856-6.479,9.315,9.315,0,0,1,1.92-1.356,17.114,17.114,0,0,0,3.218-2.731,3.143,3.143,0,0,1,2.229-1.1,12.982,12.982,0,0,0,2.615-.44,6.441,6.441,0,0,1,5.011.754c1.523.885,3.088,1.672,4.046,3.263a3.219,3.219,0,0,0,.839.78c.274.218.556.7.951.291a1.071,1.071,0,0,0,.23-1.406c-1.372-2.505-3.729-3.809-6.009-5.217.7-.727,1.3-.69,2.167-.131,1.008.649,1.748,1.617,2.819,2.381.114-.887-.521-1.286-.755-1.936a4.114,4.114,0,0,1,1.474.981c.179.181.4.475.669.278.293-.218.1-.541-.035-.8a11.472,11.472,0,0,0-1.517-1.846c-.072-.087-.136-.186-.333-.449a3.9,3.9,0,0,1,2.076,1.7c.228.3.439.625.671.932.162.208.36.456.654.314.387-.187.2-.548.084-.776-.357-.706-.771-1.38-1.173-2.062-.134-.23-.511-.441-.088-.706.379-.237.49.133.674.353.564.672,1.137,1.339,1.727,1.994.123.136.275.4.5.263a.547.547,0,0,0,.176-.64,9.7,9.7,0,0,0-.876-1.637c-.076-.165-.383-.3-.131-.512a.544.544,0,0,1,.666.011,1.846,1.846,0,0,1,.607.747c.187.336.353.683.532,1.022.148.277.283.728.643.589.429-.171.337-.658.2-1.02-.138-.388-.359-.744-.527-1.123-.054-.128-.113-.3.041-.405a.3.3,0,0,1,.447.143c.211.356.393.729.576,1.1.224.437.343.926,1.079.67.379-.132.492.417.689.689.172.24.322.551.65.551.375,0,.316-.433.5-.657.438.215.4.7.623,1.029.174.256.39.5.712.387.3-.11.262-.432.219-.7a10.7,10.7,0,0,0-.881-2.427,3.54,3.54,0,0,1,2.194,2.608c.059.385.078.859.64.73.484-.112.436-.584.361-.947-.111-.546-.3-1.078-.484-1.724a4.82,4.82,0,0,1,1.952,2.706c.226.58.363,1.192,1.052,1.445.123.049.189.278.261.433a26.008,26.008,0,0,1,2.74,10.826,38.228,38.228,0,0,1-.722,6.683c-.161.927-.423,1.841-.579,2.769a5.184,5.184,0,0,1-1.04,2.317c-.249.322-.516.65-.09.988.4.325.634-.112.9-.3a3.731,3.731,0,0,0,1.285-2.533,44.965,44.965,0,0,0,1.337-11.6,26.074,26.074,0,0,0-2.351-8.932c-.5-1.164-.928-2.36-1.378-3.545-.076-.2-.3-.454-.072-.646.2-.167.439.026.653.115,2.561,1.045,4.971,2.411,7.506,3.491,2.482,1.062,4.795,2.444,7.256,3.555a11.652,11.652,0,0,1,5.993,6.2,26.913,26.913,0,0,1,1.846,7.937c.236,2.168.722,4.333.743,6.5.055,4.287-.61,8.392-3.912,11.62-1.936,1.894-3.885,3.765-5.9,5.567a8.429,8.429,0,0,0-1.356,1.514c-1.007,1.5-2.637,2.2-4.008,3.226a.724.724,0,0,1-.412.124c-.865,0-.888.387-.4,1.041-.91.14-1.54-.448-2.241-.714-3.155-1.191-6.128-2.821-9.355-3.837-.277-.088-.315-.238-.227-.46.168-.412.326-.826.517-1.222s.51-.156.777-.1c.886.18,1.645.826,2.615.728.283-.032.609.079.806-.232.229-.359-.221-.475-.413-.894,1.036,0,1.935-.015,2.835.005a2.078,2.078,0,0,0,1.9-1.227.563.563,0,0,0-.033-.731c-.211-.223-.451-.125-.716.015-1.937,1.038-3.894.5-5.843.026-.039-.012-.055-.124-.078-.2h-.028c0-.006-.011-.008-.019-.012m33.656,19.587c-.615.009-1.019-.063-.929-.856.033-.277-.353-.506-.715-.56a3.711,3.711,0,0,1-1.114-.515c-1.087-.558-1.789-1.62-2.915-2.123-1.313-.592-2.56-1.315-3.835-1.989a36.089,36.089,0,0,0-11.94-3.9,2.534,2.534,0,0,1-1.364-.465c.385-.338.715-.626,1.042-.918.986-.875,2.272-1.42,3.055-2.51a34.543,34.543,0,0,1,3.872-3.975c2.023-2.037,4.252-3.865,5.747-6.405a14.764,14.764,0,0,0,1.95-6.309,31.055,31.055,0,0,0-.245-7.224c-.472-3.378-.489-6.844-1.742-10.087s-3.056-6.063-6.214-7.752c-2.254-1.2-4.557-2.313-6.865-3.41-4.347-2.059-8.5-4.568-13.238-5.731a20.514,20.514,0,0,0-4.617-.747c-1.942-.014-3.888.158-5.831.254a4.1,4.1,0,0,0-.964.1,76.121,76.121,0,0,0-9.184,3.048,22.662,22.662,0,0,1-5.519,1.436,4.218,4.218,0,0,0-2.629,1.262,12.783,12.783,0,0,1-3.7,3.118c-2.168,1.06-3.566,3.012-4.805,4.817a36.327,36.327,0,0,1-4.928,6.134,1.353,1.353,0,0,0-.425.758c-.2,1.194-.786,2.271-1,3.468a14.037,14.037,0,0,1-.8,2.422c-.182.487-.421.627-.9.192-1.346-1.218-2.412-2.7-3.655-4a14.523,14.523,0,0,1-3.112-6.561,23,23,0,0,0-1.324-3.645c-.7-1.547-1.918-2.756-2.753-4.215a1.46,1.46,0,0,1-.281-1.156,19.047,19.047,0,0,0,.591-4.9c.008-3.061,1.032-5.989,1.2-9.024a80.584,80.584,0,0,1,1.3-9.539c.275-1.538.562-3.072.82-4.613a2.135,2.135,0,0,1-.66.043c-.334,2.523-1.413,4.951-1.944,7.434-.9,4.227-.841,8.562-1.713,12.792-.576,2.788-.186,5.725-1.086,8.493a.572.572,0,0,0,.139.58,13.893,13.893,0,0,1,1.189,1.743A20.212,20.212,0,0,1,1630.7,634c.335.887.445,1.819.749,2.709a20.683,20.683,0,0,0,2.674,5.737,40.591,40.591,0,0,1,2.613,3.437.929.929,0,0,0,.56.413c.488.091.689.5,1.022.763,1.1.86,1.445,2.19,2.188,3.273a6.49,6.49,0,0,1,1.282,2.2c.336,1.461.838,2.881,1.054,4.376.121.824.146,1.646.219,2.466.033.4.224.785.7.777a.885.885,0,0,0,.83-.683,2.158,2.158,0,0,0-.086-.867c-.523-2.646-.8-5.351-1.883-7.923a15.16,15.16,0,0,0,1.778.515c1.282.457,2.39,1.247,3.678,1.694a3.754,3.754,0,0,1,2.391,1.72c.562,1.274,1.7,1.989,2.494,3.022.925,1.193,2.324,1.891,3.237,3.09a3.492,3.492,0,0,0,1.249.945q1.315.688,2.576,1.467a18.455,18.455,0,0,0,9.194,3,14.045,14.045,0,0,1,5.81,1.378,23.888,23.888,0,0,0,4.564,2.022c1.952.524,3.824,1.359,5.781,1.84,3.682.9,5.536,3.592,6.618,6.838.679,2.043,1.594,3.981,2.291,6.005a.979.979,0,0,0,.127.233c.189.308.409.654.827.475.385-.168.285-.555.2-.861-.131-.454-.312-.888-.468-1.338-.462-1.308-1.3-2.485-1.485-3.878a7.958,7.958,0,0,0-1.263-3.279c-.261-.415-.5-.849-.841-1.42a4.082,4.082,0,0,1,2.244,1.037,8.87,8.87,0,0,1,1.374,3.1,16.974,16.974,0,0,1,1.025,3.647c.064.5.333,1.129.88,1,.427-.1.164-.771.187-1.188a.724.724,0,0,0-.059-.258q-.853-2.56-1.7-5.124c-.065-.187-.262-.417-.088-.562a.6.6,0,0,1,.743.038,3.315,3.315,0,0,1,1.144,1.431,37.968,37.968,0,0,1,1.77,4.244c.088.317.289.7.759.583.5-.127.077-.5.164-.746.1-.3-.115-.548-.222-.825-.572-1.461-1.52-2.751-2.048-4.319,1.4.21,2.743.352,4.062.621,2.8.571,5.328,1.94,8.009,2.852,1.036.351,1.667,1.3,2.679,1.681a13.754,13.754,0,0,1,3.866,2.253c.773.638,1.331,1.581,2.6,1.37a1.354,1.354,0,0,1-.728.655c-1.876.845-3.874,1.361-5.775,2.149a20.244,20.244,0,0,1-5.913,1.039,64.867,64.867,0,0,1-9.455.455c-2.535-.128-5.084.1-7.6-.4a9.794,9.794,0,0,0-3.959.007,14.147,14.147,0,0,1-2.633.337,32.645,32.645,0,0,0-7.012.871c-3.534.839-7,.272-10.489.006-1.962-.153-3.9-.7-5.865-.819-4.106-.265-8.186-.74-12.269-1.164a18.539,18.539,0,0,0-3.163-.309c1.828-1.888,2.387-4.1,3.044-6.267.088-.281.024-.584-.289-.642-.333-.067-.325.285-.38.491a22.04,22.04,0,0,1-2.167,5.027c-.187.336-.361.682-.571,1a1.186,1.186,0,0,1-1.52.164c-.371-.4.117-.621.28-.871.358-.543.791-1.034,1.158-1.565.179-.265.365-.611-.021-.852-.342-.216-.6-.022-.834.255a16.482,16.482,0,0,0-1.417,2.135c-.207.336-.417,1.028-.929.646-.384-.288.287-.564.428-.876a2.265,2.265,0,0,1,.324-.419,6.388,6.388,0,0,0,.975-2.251.654.654,0,0,0-.341-.827c-.391-.135-.408.328-.5.548a10.225,10.225,0,0,1-1.678,2.7c-.691.812-1.167.834-2.047.23-.4-.274-.266-.595-.068-.707,1.434-.831,1.231-2.467,1.869-3.683a.4.4,0,0,0-.178-.6c-.3-.153-.423.069-.515.3-.181.466-.365.935-.532,1.407a11.062,11.062,0,0,1-.975,2.467c-.312.486-.6.46-.784-.074-.22-.669-.4-1.351-.573-2.035-.092-.363-.295-.721-.1-1.115.581-1.178,1.167-2.353,1.725-3.545.092-.2.486-.411.119-.657-.332-.224-.474.134-.618.318a14.685,14.685,0,0,1-1.535,2.155c-.086-.267-.144-.434-.2-.6-.824-2.463-1.3-5.034-2.241-7.463-.621-1.6-1.22-3.207-1.87-4.792-1.165-2.845-1.856-5.891-4.166-8.208-1.587-1.587-2.676-3.664-4.754-4.778-.252-.137-.509-.476-.756-.171a.7.7,0,0,0,.141.949,13.588,13.588,0,0,1,2.169,2.663,30.819,30.819,0,0,0,1.9,2.965,25.4,25.4,0,0,1,3.593,6.353c1.062,2.784,2.234,5.535,3.128,8.372a29.846,29.846,0,0,1,1.563,6.158c.055.61-.046.858-.747.765-1.212-.155-2.365-.517-3.548-.748a69.2,69.2,0,0,0-8.8-1.469c-1.259-.081-1.685-.709-1.427-1.966a4.152,4.152,0,0,0,.1-1.14c-.135-2.095-.65-4.135-.877-6.206-.31-2.8-1.4-5.427-1.729-8.217a14.911,14.911,0,0,0-1.139-3.554c-.685-1.757-1.259-3.547-2.114-5.241a8.238,8.238,0,0,1-.939-5.217,34.092,34.092,0,0,1,1.522-5.064,3.324,3.324,0,0,0-1.805-4.443,5.237,5.237,0,0,1-.929-.5c-.278-.207-.409-.419.1-.588a5.315,5.315,0,0,1,1.663-.224,2.341,2.341,0,0,0,2.121-1.33,3.733,3.733,0,0,0,.195-2.324,28.865,28.865,0,0,1-.433-3.659,59.361,59.361,0,0,0-.226-9.787,31.687,31.687,0,0,0-1.121-5.44,32.978,32.978,0,0,1-1.412-5.481c-.426-3.658-.795-7.323-1.187-10.981-.016-.145-.2-.7-.217-.845-.134.027-.1.467-.23.5a1.3,1.3,0,0,1-.55.011,56.76,56.76,0,0,1,.665,7.353,26.778,26.778,0,0,0,1.183,7.019,43.756,43.756,0,0,1,1.86,8.407c.222,2.558.168,5.129.168,7.7a7.342,7.342,0,0,0,.331,2.791,4.994,4.994,0,0,1,.377,2.828,2.023,2.023,0,0,1-2.045,2,6.387,6.387,0,0,0-2.164.4.825.825,0,0,0-.551,1.036,3.007,3.007,0,0,0,2.391,2.437,1.341,1.341,0,0,1,.923,1.259,2.981,2.981,0,0,1-.457,1.947,15.851,15.851,0,0,0-2.3,7.806,6.5,6.5,0,0,0,.952,3.782,13.746,13.746,0,0,1,1.374,2.652,43.657,43.657,0,0,1,1.214,5.215c.448,1.908,1.036,3.784,1.524,5.684.5,1.935,1.065,3.859,1.391,5.826a17.019,17.019,0,0,1,.168,5.548c-.1.6.1.716.531.968.944.57,2.047.46,3.037.834a10.809,10.809,0,0,0,2.534.723c1.167.142,2.341.256,3.5.452,2.066.344,4.113.8,6.207.981a1.249,1.249,0,0,1,1.169.888,3.985,3.985,0,0,0,2.791,2.685,37.081,37.081,0,0,0,7.991,1.328c2.151.082,4.272.553,6.413.734,4.058.336,8.134.455,12.154,1.188a56.362,56.362,0,0,0,5.892.564,21.1,21.1,0,0,0,6.177-.261,48.054,48.054,0,0,1,7.712-.987c1.653-.088,3.285-.6,4.934-.381a55.473,55.473,0,0,0,11.053.586,79.059,79.059,0,0,0,9.268-.721,27.872,27.872,0,0,0,6.044-1.58,38.086,38.086,0,0,0,5.88-2.53c.336-.219.581-.454.533-.82a.763.763,0,0,0-.773-.717">
</path>
<path class="a" d="M1613.523,598.3c.155,2.444-.191,4.9.164,7.343.225,1.552.418,3.106.677,4.652.438,2.615,1.206,5.166,1.43,7.822.2,2.436.961,4.8,1.021,7.265a4.852,4.852,0,0,0,3.37,3.9c1.756.32,3.206-.726,3.727-2.733.708-2.708,1.382-5.422,2.087-8.132.282-1.091.121-2.222.377-3.328a49.657,49.657,0,0,0,.953-5.485c.467-3.979.911-7.87,1.526-11.958,0,0-.21-.076-.558-.22-.229,1.26-.637,2.482-.886,3.737-.838,4.238-1.037,8.576-1.964,12.806-.312,1.423-.319,2.917-.666,4.328-.669,2.723-1.457,5.412-2.1,8.145a1.809,1.809,0,0,1-2.031,1.449,2.836,2.836,0,0,1-2.462-2.529c-.162-2.388-.815-4.688-1.045-7.059a29.908,29.908,0,0,0-.87-5.307,36.092,36.092,0,0,1-1.132-4.988,79.409,79.409,0,0,1-.771-10.548,3.615,3.615,0,0,1-.667.377.509.509,0,0,0-.18.459"></path><path class="a" d="M1613.7,598.214a3.76,3.76,0,0,0,.666-.379c0-.035,0-.065,0-.1a8.083,8.083,0,0,1-.664.477"></path><path class="a" d="M1623.394,647.064c-.582.1-.471-.561-.787-.824.4.052.874-.293,1.095.17.068.14,0,.6-.308.654m-3.1-.123c-.516-.078-.365-.531-.486-.824a.288.288,0,0,1,.25-.386,1.371,1.371,0,0,1,1.192.367,5.068,5.068,0,0,1,.486.973,4.36,4.36,0,0,1-1.442-.13m-1.858-.35a1.51,1.51,0,0,1-1.349-1.071c-.091-.361.336-.718.757-.631.5.111,1.2.143,1,1.062-.088.193.271.741-.406.64m7.066-2.2c-.874-.05-1.678.428-2.523.271-1.536-.28-3.171-.013-4.6-.941a1.321,1.321,0,0,0-1.831.285c-1.1,1.231-.889,2.2.658,3.25a7.009,7.009,0,0,0,4.549,1.112c1.031-.093,2.166.253,3.058-.514a5.852,5.852,0,0,1,1.352-.923c.7-.327.717-1,.561-1.676s-.574-.825-1.228-.864"></path><path class="a" d="M1624.088,639.374a.515.515,0,0,0,.472.556c1.575.139,2.526,1.221,3.5,2.27a7.591,7.591,0,0,0,2.014,1.819c.6.3,1.35.59,1.87-.015a1.736,1.736,0,0,0,.22-2.049,8.639,8.639,0,0,0-1.338-1.966,6.583,6.583,0,0,1-2.075-3.989.95.95,0,0,0-.749-.877.47.47,0,0,0-.6.214c-.238.4-.586.812-.244,1.294a3.268,3.268,0,0,1,.468,1.13,6.558,6.558,0,0,0,1.821,3.064,2.727,2.727,0,0,1,.89,1.447c-.191-.07-.293-.109-.394-.148a9.2,9.2,0,0,1-2.465-1.97,4.2,4.2,0,0,0-2.744-1.249c-.332.007-.609.117-.638.469"></path><path class="a" d="M1633.613,659.918a8.275,8.275,0,0,0,1.325,5.035,7.937,7.937,0,0,1,1.366,3.117,2.9,2.9,0,0,0,.469.939.5.5,0,0,0,.5.3c.285-.005.314-.248.386-.423a1.359,1.359,0,0,0-.007-1.037,11.194,11.194,0,0,0-.951-2.188,15.852,15.852,0,0,1-2.474-6.381,14.472,14.472,0,0,0-.634-1.995,2.428,2.428,0,0,0-.12,1.777,2.128,2.128,0,0,1,.141.86"></path><path class="a" d="M1637.386,681.758a.421.421,0,0,0-.537.328c-.22.666-.433,1.339-.659,2-.075.23-.2.462.134.583a.433.433,0,0,0,.576-.277c.279-.737.525-1.491.771-2.206-.016-.237-.08-.387-.285-.432"></path><path class="a" d="M1640.288,684.7c.171-.243.386-.531.045-.769s-.593-.081-.775.272c-.225.437-.482.863-.8,1.421.863.118,1.18-.434,1.53-.924"></path><path class="c" d="M1696.1,671.89a2.735,2.735,0,0,1-1.588.7c-.3.039-.631.006-.753-.311-.139-.353.191-.423.433-.529a.27.27,0,0,0,.152-.341c-.478.064-1.112.345-1.319-.2-.155-.413.517-.621.866-.845a19.86,19.86,0,0,0,5.8-5.075c.346-.478.635-.989.968-1.47.162-.23.328-.543.707-.339s.222.489.109.764a3.756,3.756,0,0,1-.669,1.214,1.31,1.31,0,0,0-.5,1.054,2.613,2.613,0,0,0,1.325-1.192c.587-.849,1.087-1.76,1.608-2.65.112-.193.106-.555.425-.429a.725.725,0,0,1,.539.722,2.958,2.958,0,0,1-.373,1.075,16.545,16.545,0,0,1-5.048,5.553c-.927.739-1.806,1.514-2.68,2.3m-5.14-2.04c.121-.558.6-.725,1.035-.851a4.836,4.836,0,0,0,1.264-.612,43.056,43.056,0,0,0,10.728-11.549,44.4,44.4,0,0,0,3.71-9.076,5.926,5.926,0,0,0,.054-.6c-.664,1.325-1.226,2.415-1.762,3.52a35.276,35.276,0,0,1-3.29,4.676c-1.649,2.331-3.4,4.588-5.1,6.889a5,5,0,0,1-1.37,1.227c-.255.163-.589.317-.808.062-.2-.234.028-.5.227-.682a26.577,26.577,0,0,0,3.817-4.738c2.174-3.245,4.978-6.071,6.594-9.695a15.052,15.052,0,0,0,1.153-2.956c.049-.215.106-.561.4-.505.79.149.628-.375.7-.825.049-.3-.021-.834.445-.837.355,0,.537.391.652.753a5.476,5.476,0,0,1-.3,3.04,53.707,53.707,0,0,1-1.823,5.722,35.623,35.623,0,0,1-9.026,13.039,24.672,24.672,0,0,1-4.967,3.9c-.641.361-1.389.166-2.033.533-.3.171-.346-.165-.289-.433m1.862-7.5c.7-.654,1.35-1.275,2.014-1.887,1.45-1.343,2.33-3.109,3.481-4.669,1.488-2.011,2.61-4.248,4.044-6.3a29.317,29.317,0,0,0,3.06-6.081c.6-1.523,1.489-2.954,1.579-4.657.014-.271.111-.586.47-.475a.745.745,0,0,1,.548.826,7.076,7.076,0,0,1-.366,1.358,47.326,47.326,0,0,1-4.468,9.705c-1.957,2.978-3.776,6.044-5.842,8.957a15.845,15.845,0,0,1-3.045,3.131,1.026,1.026,0,0,1-1.475.088m-.08-1.37c-.221.151-.482.337-.718.1-.293-.3-.006-.536.171-.761a6.9,6.9,0,0,1,1.335-1.15,18.4,18.4,0,0,0,4.559-5.7c1.669-2.948,3.282-5.927,4.793-8.965.814-1.633.886-3.407,1.319-5.113.078-.314.107-.644.207-.955.088-.282.1-.706.591-.585a.4.4,0,0,1,.344.476,28.791,28.791,0,0,1-2.159,7.862,110.181,110.181,0,0,1-5.842,10.4,15.6,15.6,0,0,1-4.6,4.39m-1.622-11.525a.867.867,0,0,1,.043-1.065,9.862,9.862,0,0,0,1.313-5.07c.028-1.974.541-3.917.609-5.9a16.155,16.155,0,0,0-.166-2.81c-.039-.286-.074-.562.27-.64s.423.227.495.49a12.2,12.2,0,0,1,.248,4.488c-.146,1.436-.324,2.872-.482,4.309a2.424,2.424,0,0,0,.137,1.159,7.893,7.893,0,0,0,.585-2.767c.2-.987.334-1.983.513-2.973a3.563,3.563,0,0,0-.037-1.753,3.7,3.7,0,0,1,.051-1.833c.057-.292.143-.517.5-.484a.488.488,0,0,1,.505.589c-.187,1.834.063,3.681-.3,5.521a55.936,55.936,0,0,1-1.177,6.445,4.836,4.836,0,0,1-.642,1.44c-.332.452-.5,1.065-1.261.67-.047-.025-.18.033-.225.094a.59.59,0,0,1-.981.09m5.921-14.762c-.012-.218-.244-.5.074-.613s.552.1.7.384a3.045,3.045,0,0,1,.2,1.734,59.15,59.15,0,0,1-1.778,10.9,4.558,4.558,0,0,1-.683,1.5c-.139.194-.215.557-.574.349a.622.622,0,0,1-.343-.746c.119-.364.343-.694.435-1.063a54.8,54.8,0,0,0,2.037-10.407,19.517,19.517,0,0,0-.066-2.035m-9.775,12.037a10.157,10.157,0,0,1-1.661,3.308,9.348,9.348,0,0,0-1.325,2.49c-.144.434-.363.957-.857.8-.468-.146-.663-.569-.474-1.215a6.392,6.392,0,0,1,1.239-2.095,15.308,15.308,0,0,0,2.615-6.282,35.507,35.507,0,0,0,.66-8.542c-.014-.893-.435-1.7-.517-2.662a1.252,1.252,0,0,1,1.042,1.045c.595,2.334.312,4.7.281,7.052a26.009,26.009,0,0,1-1,6.1m-5.925,1.761a1.882,1.882,0,0,1-.1.607c-.112.272-.108.75-.534.672s-.288-.524-.275-.828c.034-.913.09-1.827.139-2.737.5-3.485-1.042-6.6-1.77-9.864a4.859,4.859,0,0,0-.882-1.7c-.149-.2-.338-.406-.141-.608a.583.583,0,0,1,.744-.039,1.65,1.65,0,0,1,.581.754,70.657,70.657,0,0,1,2.186,8.089,27.141,27.141,0,0,1,.051,5.658m-5.338,3.279a1,1,0,0,1-.419-.947,12.786,12.786,0,0,0-1.784-7.454c-.624-1.205-1.3-2.378-1.92-3.583-.121-.227-.406-.578-.045-.787s.658.173.765.415c1.321,2.94,3.435,5.555,3.782,8.9a5.771,5.771,0,0,1-.379,3.452m-25.97-2.615c-.256.183-.5-.109-.672-.29-.5-.521-.8-1.182-1.37-1.688a13.362,13.362,0,0,0-4.871-2.875c-.26-.08-.73.108-.75-.406-.011-.259.252-.352.881-.357a6.5,6.5,0,0,1,3.21,1.506,18.539,18.539,0,0,1,3.345,2.967c.1.108.259.2.287.323.06.276.2.636-.06.82m50.712,20.3a8.357,8.357,0,0,1,1.356-1.513c2.017-1.8,3.966-3.674,5.9-5.567,3.3-3.229,3.963-7.328,3.916-11.62-.027-2.172-.511-4.337-.747-6.5a26.889,26.889,0,0,0-1.846-7.938,11.655,11.655,0,0,0-5.993-6.2c-2.461-1.11-4.774-2.492-7.256-3.555-2.535-1.085-4.947-2.446-7.5-3.491-.218-.089-.456-.282-.657-.114-.231.191,0,.443.076.646.446,1.184.878,2.381,1.374,3.545a26.069,26.069,0,0,1,2.351,8.931,44.955,44.955,0,0,1-1.337,11.6,3.733,3.733,0,0,1-1.285,2.534c-.268.187-.5.624-.9.3-.426-.339-.158-.667.092-.988a5.211,5.211,0,0,0,1.038-2.318c.156-.93.418-1.842.577-2.769a38.011,38.011,0,0,0,.724-6.683,26.015,26.015,0,0,0-2.74-10.826c-.072-.154-.138-.383-.261-.433-.689-.253-.824-.865-1.052-1.444a4.818,4.818,0,0,0-1.952-2.705c.186.644.373,1.177.484,1.722.075.363.125.836-.36.948-.561.128-.582-.346-.637-.731a3.56,3.56,0,0,0-2.2-2.61,10.852,10.852,0,0,1,.88,2.429c.043.268.088.59-.219.7-.322.119-.538-.131-.712-.387-.224-.328-.185-.814-.62-1.029-.188.225-.129.658-.5.658-.328,0-.478-.312-.65-.551-.2-.273-.31-.821-.689-.688-.735.254-.855-.235-1.079-.672-.183-.366-.365-.74-.576-1.1a.3.3,0,0,0-.447-.143c-.152.1-.1.276-.041.4.168.38.393.736.527,1.123.133.362.229.85-.2,1.021-.358.138-.495-.312-.643-.59-.179-.339-.343-.686-.532-1.022a1.863,1.863,0,0,0-.607-.747.545.545,0,0,0-.666-.01c-.252.213.055.347.131.512a9.593,9.593,0,0,1,.876,1.636.548.548,0,0,1-.176.64c-.224.133-.376-.127-.5-.266-.59-.652-1.165-1.318-1.727-1.991-.184-.219-.3-.59-.674-.353-.423.265-.046.476.088.7.4.684.816,1.358,1.173,2.063.115.228.3.59-.082.776-.294.142-.494-.1-.656-.313-.234-.307-.441-.63-.671-.933a3.909,3.909,0,0,0-2.076-1.7c.2.264.261.362.331.449a11.382,11.382,0,0,1,1.519,1.846c.137.256.328.578.035.8-.271.2-.49-.1-.669-.278a4.1,4.1,0,0,0-1.474-.981c.23.653.869,1.05.755,1.937-1.071-.764-1.811-1.735-2.819-2.382-.871-.558-1.468-.6-2.167.132,2.277,1.408,4.637,2.714,6.009,5.217a1.068,1.068,0,0,1-.23,1.405c-.4.41-.677-.072-.951-.287a3.383,3.383,0,0,1-.843-.783c-.952-1.592-2.519-2.378-4.042-3.263a6.45,6.45,0,0,0-5.011-.754,13.354,13.354,0,0,1-2.615.443,3.128,3.128,0,0,0-2.229,1.1,17.156,17.156,0,0,1-3.216,2.731,9.278,9.278,0,0,0-1.922,1.357,27.838,27.838,0,0,0-4.856,6.479.754.754,0,0,0,.143.949c.482.555.988,1.087,1.489,1.622,1.206,1.281,2.315,2.692,4.251,2.921.45.055.55.477.478.823-.084.415-.467.258-.736.2a2.645,2.645,0,0,1-.654-.248,19.66,19.66,0,0,1-5.031-4.325c-.88-.931-1.042-.914-1.815.128-.236.32-.187.453.111.7.675.564,1.31,1.182,1.948,1.786a14.06,14.06,0,0,0,5.767,3.746.657.657,0,0,1,.49.747c-.045.454-.438.265-.7.33-.714.171-1.06-.7-1.79-.637.12.587.621.881.865,1.343.207.4.427.822,0,1.071s-.7-.268-.841-.567c-1.017-2.087-2.922-3.21-4.719-4.465a6.3,6.3,0,0,0-2.088-.893c-.3-.077-.511-.259-.469-.552.055-.37.41-.3.65-.265.416.052.826.173,1.279.274-.092-.566-.5-.8-.795-1.113-.618-.668-.8-.643-1.239.18a3.2,3.2,0,0,0-.213.483c-.612,1.937-1.028,3.936-1.769,5.829-.08.2-.207.432.027.55.429.216.617.694,1.087.883,2.012.813,4.024,1.63,6,2.521a7.1,7.1,0,0,1,3.02,2.051c2.235,2.922,4.567,5.773,7.9,7.564.881.475,1.728,1.01,2.6,1.489a17.546,17.546,0,0,0,6.547,2.246c3.132.325,6.3.594,9.042,2.435,1.409.948,3.175,1,4.677,1.747a.641.641,0,0,0,.978-.55,4.777,4.777,0,0,1,.17-.779,8.06,8.06,0,0,0,.039-3.3c-.063-.905-1-1.626-1.9-2.052a19.388,19.388,0,0,0-4.774-1.488c-1.907-.345-3.848-.269-5.777-.6-2.98-.512-5.735-1.669-8.623-2.424a17.522,17.522,0,0,1-6.251-3.337,5.218,5.218,0,0,1-1.858-2.087c-.068-.181-.172-.425.084-.544.2-.092.322.088.441.217s.22.276.338.4a8.561,8.561,0,0,0,3.922,2.777c1.639.42,3.132,1.181,4.756,1.6,2.073.543,4.022,1.555,6.206,1.681.253.015.585.247.746-.012.175-.29-.12-.562-.293-.775-2.812-3.419-5.494-6.973-9.459-9.2a.471.471,0,0,1-.289-.611,3.016,3.016,0,0,1,1.54.563c.838.6,1.686,1.18,2.492,1.817a18.855,18.855,0,0,1,4.037,3.613,12.827,12.827,0,0,0,1.434,1.676,13.608,13.608,0,0,1,2.009,2.721,1.262,1.262,0,0,0,1.329.744,16.3,16.3,0,0,1,9.316,2.256.794.794,0,0,0,.879,0c.689-.357.844-1.02,1.108-1.633.088-.206.106-.518.449-.408a.481.481,0,0,1,.355.545c-.017.176-.06.348-.076.524a2.832,2.832,0,0,1-1.442,2.177.974.974,0,0,0,.862-.014,4.189,4.189,0,0,0,1.86-1.709c.125-.252.242-.462.6-.353s.352.353.336.628a.956.956,0,0,1-.031.354c-.264.544-.114.891.412,1.2.484.285.5.584-.119.837a9.21,9.21,0,0,1-1.478.346c1.507.558,2.18.355,2.949-.866a.557.557,0,0,1,.568-.313c.338.024.338.284.341.518a2,2,0,0,1-1.085,2.047,5.3,5.3,0,0,1-2.589.261c.023.073.039.185.078.2,1.949.472,3.907,1.013,5.845-.025.263-.141.5-.242.714-.016a.56.56,0,0,1,.033.731,2.073,2.073,0,0,1-1.9,1.226c-.9-.016-1.8,0-2.835,0,.193.421.642.536.413.894-.2.311-.525.2-.81.232-.962.1-1.723-.547-2.611-.731-.267-.055-.579-.3-.777.1s-.349.81-.517,1.22c-.088.223-.05.373.227.461,3.227,1.017,6.2,2.646,9.355,3.838.7.265,1.331.852,2.241.713-.49-.654-.467-1.039.4-1.041a.7.7,0,0,0,.412-.127c1.371-1.028,3-1.726,4.008-3.223"></path><path class="b" d="M1686.449,665.007l.023,0c0-.008,0-.013,0-.02l-.02.017"></path><path class="b" d="M1686.426,665c.008.005.016.007.02.013l0,0,.02-.017-.043.007"></path><path class="a" d="M1698.254,665.849a35.615,35.615,0,0,0,9.026-13.039,53.565,53.565,0,0,0,1.823-5.722,5.474,5.474,0,0,0,.3-3.039c-.115-.363-.3-.754-.651-.751-.467,0-.4.53-.446.835-.07.449.092.973-.7.825-.289-.057-.346.289-.4.5a15.059,15.059,0,0,1-1.153,2.957c-1.616,3.624-4.416,6.449-6.594,9.694a26.542,26.542,0,0,1-3.817,4.738c-.2.186-.426.449-.227.683.219.254.553.1.809-.063a4.976,4.976,0,0,0,1.369-1.227c1.7-2.3,3.453-4.558,5.1-6.888a35.287,35.287,0,0,0,3.29-4.677c.536-1.1,1.1-2.2,1.762-3.519a5.691,5.691,0,0,1-.054.6,44.446,44.446,0,0,1-3.71,9.076,43.074,43.074,0,0,1-10.728,11.548A4.87,4.87,0,0,1,1692,669c-.44.126-.914.292-1.035.85-.057.268-.012.6.289.433.644-.366,1.392-.172,2.033-.533a24.635,24.635,0,0,0,4.967-3.9"></path><path class="a" d="M1692.331,649.269c.761.4.929-.217,1.261-.669a4.886,4.886,0,0,0,.642-1.44,55.953,55.953,0,0,0,1.177-6.446c.358-1.84.109-3.686.3-5.521a.489.489,0,0,0-.507-.588c-.355-.033-.439.191-.5.483a3.679,3.679,0,0,0-.051,1.834,3.559,3.559,0,0,1,.037,1.752c-.179.991-.317,1.987-.513,2.973a7.889,7.889,0,0,1-.585,2.768,2.431,2.431,0,0,1-.137-1.16c.158-1.436.336-2.872.482-4.309a12.2,12.2,0,0,0-.248-4.488c-.072-.263-.138-.563-.495-.489s-.309.353-.268.64a16.348,16.348,0,0,1,.164,2.809c-.068,1.984-.581,3.927-.609,5.9a9.858,9.858,0,0,1-1.313,5.069.869.869,0,0,0-.045,1.066.592.592,0,0,0,.983-.09.27.27,0,0,1,.225-.1"></path><path class="a" d="M1694.3,662.261a15.639,15.639,0,0,0,3.042-3.131c2.069-2.913,3.888-5.979,5.845-8.957a47.4,47.4,0,0,0,4.467-9.7,6.963,6.963,0,0,0,.367-1.363.742.742,0,0,0-.548-.821c-.36-.111-.457.2-.47.475-.09,1.7-.98,3.133-1.579,4.657a29.276,29.276,0,0,1-3.061,6.081c-1.434,2.048-2.556,4.285-4.043,6.3-1.151,1.563-2.032,3.326-3.481,4.669-.664.609-1.318,1.233-2.015,1.886a1.026,1.026,0,0,0,1.476-.087"></path><path class="a" d="M1694.382,671.388l-.014.015a.048.048,0,0,0-.019.005.268.268,0,0,1-.153.34c-.242.107-.571.177-.433.53.123.317.457.35.753.311a2.734,2.734,0,0,0,1.589-.7c.874-.79,1.753-1.564,2.679-2.3a16.5,16.5,0,0,0,5.045-5.553,2.914,2.914,0,0,0,.377-1.076.724.724,0,0,0-.539-.721c-.32-.126-.314.235-.425.429-.521.89-1.021,1.8-1.608,2.65a2.618,2.618,0,0,1-1.325,1.192,1.316,1.316,0,0,1,.5-1.055,3.726,3.726,0,0,0,.67-1.213c.113-.275.267-.563-.11-.765s-.544.11-.706.34c-.334.481-.625.991-.968,1.47a19.888,19.888,0,0,1-5.8,5.075c-.349.224-1.021.432-.867.844.207.55.841.269,1.32.205,0-.009,0-.015,0-.029l.058-.041-.029.05Z"></path><path class="a" d="M1694.349,671.383c.01,0,.02.005.029.005l.032-.05-.061.041c0,.014,0,.02,0,.028s.014,0,.02,0l-.02-.02"></path><path class="a" d="M1697.347,656.588a110.278,110.278,0,0,0,5.843-10.4,28.825,28.825,0,0,0,2.158-7.862.4.4,0,0,0-.341-.476c-.49-.121-.506.3-.6.586-.1.31-.123.64-.2.954-.433,1.706-.5,3.48-1.318,5.113-1.509,3.039-3.125,6.018-4.793,8.965a18.393,18.393,0,0,1-4.56,5.7,7,7,0,0,0-1.334,1.15c-.178.226-.465.461-.172.761.236.236.5.049.718-.1a15.589,15.589,0,0,0,4.6-4.391"></path><path class="a" d="M1687.993,633.58a1.249,1.249,0,0,0-1.042-1.045c.082.962.5,1.769.517,2.662a35.507,35.507,0,0,1-.66,8.542,15.345,15.345,0,0,1-2.612,6.282,6.326,6.326,0,0,0-1.242,2.1c-.189.646.006,1.07.475,1.214.493.154.712-.371.856-.8a9.379,9.379,0,0,1,1.325-2.49,10.116,10.116,0,0,0,1.661-3.308,26.009,26.009,0,0,0,1-6.1c.031-2.354.314-4.718-.281-7.052"></path><path class="a" d="M1694.64,648.2a.623.623,0,0,0,.344.746c.359.208.435-.156.573-.349a4.57,4.57,0,0,0,.684-1.5,59.244,59.244,0,0,0,1.777-10.895,3.042,3.042,0,0,0-.2-1.734c-.148-.279-.387-.5-.7-.387s-.085.4-.074.616a20.357,20.357,0,0,1,.067,2.035,54.819,54.819,0,0,1-2.038,10.407c-.091.367-.316.7-.435,1.063"></path><path class="a" d="M1679.109,634.743a1.632,1.632,0,0,0-.582-.754.581.581,0,0,0-.743.039c-.2.2-.008.407.14.608a4.86,4.86,0,0,1,.883,1.7c.729,3.263,2.269,6.379,1.77,9.863-.049.911-.106,1.825-.139,2.74-.014.3-.16.744.275.826s.422-.4.533-.672a1.891,1.891,0,0,0,.1-.607,27.227,27.227,0,0,0-.052-5.659,71.044,71.044,0,0,0-2.186-8.088"></path><path class="a" d="M1672.6,639.412c-.107-.24-.4-.622-.765-.415s-.076.557.045.788c.62,1.205,1.3,2.377,1.918,3.583a12.786,12.786,0,0,1,1.786,7.453.993.993,0,0,0,.423.947,5.8,5.8,0,0,0,.375-3.455c-.347-3.345-2.461-5.961-3.782-8.9"></path><path class="a" d="M1649.811,648.01a18.536,18.536,0,0,0-3.345-2.966,6.541,6.541,0,0,0-3.21-1.51c-.629.009-.892.1-.881.36.02.512.49.326.75.406a13.35,13.35,0,0,1,4.871,2.876c.566.505.869,1.167,1.37,1.687.17.181.416.473.672.291s.12-.545.06-.821c-.028-.125-.189-.215-.287-.323"></path><path class="b" d="M1694.369,671.4l.01-.015c-.01,0-.02,0-.03-.005l.02.02"></path><path class="b" d="M1694.382,671.388h0l-.01.015.014-.015"></path><path class="a" d="M1610.8,595.141a1.84,1.84,0,0,0,.268,1.134.672.672,0,0,0,.893.235.66.66,0,0,0,.236-.894.7.7,0,0,1-.089-.475.654.654,0,0,0-1.308,0"></path><path class="a" d="M1629.1,596.009a1.842,1.842,0,0,0,.27,1.138.68.68,0,0,0,.9.235.664.664,0,0,0,.231-.9.7.7,0,0,1-.089-.478.655.655,0,0,0-1.308,0">
</path></g></svg>